<svg xmlns="http://www.w3.org/2000/svg" width="644" height="561" fill="none" viewBox="0 0 644 561"><rect width="644" height="561" fill="#fff"/><path stroke="#000" stroke-width="2" d="M63 230.87L287.504 26"/><path stroke="#000" stroke-width="2" d="M380.496 230.87L605 26"/><path stroke="#000" stroke-width="2" d="M380 531.87L604.504 327"/><rect width="315" height="300" x="64" y="231" fill="#fff" stroke="#000" stroke-width="2"/><line x1="286.835" x2="604.331" y1="25" y2="25" stroke="#000" stroke-width="2"/><line x1="605.331" x2="606.018" y1="25.998" y2="326.998" stroke="#000" stroke-width="2"/><path stroke="#E75C5C" stroke-width="2" d="M96 248.87L320.504 44"/><path stroke="#E75C5C" stroke-width="2" d="M146 249.87L370.504 45"/><path stroke="#E75C5C" stroke-width="2" d="M146 302.87L370.504 98"/><line x1="62.999" x2="380.001" y1="267" y2="267" stroke="#000"/><line x1="63" x2="380.002" y1="249.5" y2="249.5" stroke="#000"/><line x1="62" x2="379.002" y1="302" y2="302" stroke="#000"/><line x1="62.001" x2="379.002" y1="284.5" y2="284.5" stroke="#000"/><line x1="63" x2="380.002" y1="337" y2="337" stroke="#000"/><line x1="63.001" x2="380.002" y1="319.5" y2="319.5" stroke="#000"/><line x1="63" x2="380.002" y1="372" y2="372" stroke="#000"/><line x1="63.001" x2="380.002" y1="354.5" y2="354.5" stroke="#000"/><line x1="63.999" x2="381.001" y1="407" y2="407" stroke="#000"/><line x1="64" x2="381.002" y1="389.5" y2="389.5" stroke="#000"/><line x1="63" x2="380.002" y1="442" y2="442" stroke="#000"/><line x1="63.001" x2="380.002" y1="424.5" y2="424.5" stroke="#000"/><line x1="64" x2="381.002" y1="477" y2="477" stroke="#000"/><line x1="64.001" x2="381.002" y1="459.5" y2="459.5" stroke="#000"/><line x1="64" x2="381.002" y1="512" y2="512" stroke="#000"/><line x1="79.5" x2="79.5" y1="231" y2="532" stroke="#000"/><path stroke="#000" d="M96 232L96 533M112.5 232L112.5 533M129.5 232L129.5 533"/><line x1="146.5" x2="146.5" y1="232" y2="533" stroke="#000"/><path stroke="#000" d="M163 233L163 534M179.5 233L179.5 534M196.5 233L196.5 534"/><line x1="213.5" x2="213.5" y1="233" y2="534" stroke="#000"/><path stroke="#000" d="M230 234L230 535M246.5 234L246.5 535M263.5 234V535"/><line x1="280.5" x2="280.5" y1="233" y2="534" stroke="#000"/><path stroke="#000" d="M297 234V535M313.5 234V535M330.5 234V535"/><line x1="348.5" x2="348.5" y1="231" y2="532" stroke="#000"/><line x1="366.5" x2="366.5" y1="232" y2="533" stroke="#000"/><rect width="51" height="54" x="95" y="249" fill="#E75C5C" fill-opacity=".73"/><rect width="51" height="54" x="320" y="44" fill="#E75C5C" fill-opacity=".83"/></svg>